Coordinates
version=1
nRows=14
nColumns=40
inDegrees=yes

Units are S.I. units (second, meters, Newtons, ...)
Angles are in degrees.

endheader
time	pelvis_tilt	pelvis_list	pelvis_rotation	pelvis_tx	pelvis_ty	pelvis_tz	hip_flexion_r	hip_adduction_r	hip_rotation_r	knee_angle_r	knee_angle_r_beta	ankle_angle_r	subtalar_angle_r	mtp_angle_r	hip_flexion_l	hip_adduction_l	hip_rotation_l	knee_angle_l	knee_angle_l_beta	ankle_angle_l	subtalar_angle_l	mtp_angle_l	lumbar_extension	lumbar_bending	lumbar_rotation	arm_flex_r	arm_add_r	arm_rot_r	elbow_flex_r	pro_sup_r	wrist_flex_r	wrist_dev_r	arm_flex_l	arm_add_l	arm_rot_l	elbow_flex_l	pro_sup_l	wrist_flex_l	wrist_dev_l
     17.12000000	     -2.63315307	     -5.38753810	      4.02634197	      1.11869233	      0.93202332	      0.47153328	     10.91959839	      3.88432450	    -18.95361153	     15.38877567	     15.38877567	      8.97897647	     -2.51306607	     -4.84357028	     33.22795153	    -12.72257285	      1.78640753	     65.63831676	     65.63831676	      9.10204980	    -18.46799926	     12.03994772	    -11.03196460	      7.40311532	      5.10412326	     10.43832908	    -15.98646878	     -8.08665585	     37.81927600	     45.50359879	      0.00000000	      0.00000000	      6.21407989	     -7.84828668	     -3.35109004	     62.85527773	     46.27257370	      0.00000000	      0.00000000
     17.13135714	     -2.63453190	     -5.40402146	      4.28539091	      1.11768414	      0.93259102	      0.47241977	      9.85673968	      4.15487123	    -19.12200825	     14.47996795	     14.47996795	      9.15935645	     -2.10173713	     -4.91242348	     34.37413429	    -12.79457051	      1.34336409	     63.10594925	     63.10594925	      9.30293555	    -18.66113314	     12.39741914	    -11.03956262	      7.34389998	      4.57803826	     13.30345951	    -15.99451002	     -8.02803655	     39.27830891	     45.46801332	      0.00000000	      0.00000000	      4.58083603	     -7.83035471	     -2.90484642	     59.81555713	     46.19867146	      0.00000000	      0.00000000
     17.14271429	     -2.65516435	     -5.44963921	      4.51369270	      1.11667615	      0.93304196	      0.47325517	      8.80340828	      4.44061963	    -19.42988681	     13.51975345	     13.51975345	      9.18101514	     -1.46022910	     -5.41606686	     35.30797307	    -12.84371206	      0.86515592	     60.25419679	     60.25419679	      9.51189059	    -18.77071508	     13.07728153	    -10.93854468	      7.34455828	      4.88408034	     15.64651487	    -16.60720970	     -7.28050882	     40.45755721	     45.41793081	      0.00000000	      0.00000000	      4.64722352	     -7.11087695	     -2.43960208	     53.43745408	     46.13520702	      0.00000000	      0.00000000
     17.15407143	     -2.64654919	     -5.48941932	      4.72620937	      1.11574435	      0.93338110	      0.47403034	      7.72096368	      4.74724805	    -19.61572657	     12.54667819	     12.54667819	      9.26165429	     -0.95356798	     -5.66194904	     35.98399148	    -12.82577052	      0.36725144	     57.12584617	     57.12584617	      9.69814716	    -18.83014049	     13.96956882	    -10.94277034	      7.34341526	      4.91805519	     18.00225372	    -16.98576476	     -6.87609782	     42.21470712	     45.36600024	      0.00000000	      0.00000000	      4.12239014	     -6.72885578	     -1.87602917	     48.62253914	     46.07460389	      0.00000000	      0.00000000
     17.16542857	     -2.62374194	     -5.46553121	      4.88793665	      1.11488646	      0.93361111	      0.47479908	      6.66023559	      4.98919652	    -19.67639176	     11.65542695	     11.65542695	      9.45207486	     -0.54891198	     -5.64791361	     36.38015495	    -12.70697190	     -0.20252999	     53.68625331	     53.68625331	      9.71566874	    -18.84641651	     14.63009599	    -11.01794935	      7.22497497	      4.59010036	     20.61576168	    -16.95075966	     -6.89288215	     43.76538924	     45.32900864	      0.00000000	      0.00000000	      2.68127852	     -6.68285260	     -1.50189076	     46.19971850	     46.00966775	      0.00000000	      0.00000000
     17.17678571	     -2.60071152	     -5.63731977	      5.07118243	      1.11409180	      0.93355052	      0.47537115	      5.54341898	      5.43617514	    -19.96075049	     10.61684470	     10.61684470	      9.58086916	      0.22462995	     -5.75068858	     36.73000455	    -12.66248526	     -0.54091461	     50.17011342	     50.17011342	      9.72646909	    -18.78150247	     15.31533612	    -11.03168612	      7.42321710	      4.30118586	     23.25678480	    -17.00870789	     -6.67266342	     45.26474971	     45.28636178	      0.00000000	      0.00000000	      1.85459349	     -6.45643081	     -0.98309551	     42.12036620	     45.92593024	      0.00000000	      0.00000000
     17.18814286	     -2.67988348	     -5.69712010	      5.11872561	      1.11329328	      0.93322466	      0.47591062	      4.68144347	      5.67776971	    -20.22482761	      9.89335853	      9.89335853	      9.78362301	      1.08184896	     -6.07711397	     36.93790506	    -12.47464559	     -0.96488953	     46.40466953	     46.40466953	      9.55915313	    -18.66014218	     15.67019309	    -10.90254249	      7.44574265	      4.97381068	     25.19102964	    -17.78918972	     -6.14007734	     46.66255340	     45.24439359	      0.00000000	      0.00000000	      2.24727513	     -5.86041862	     -0.34454564	     36.21940418	     45.83965987	      0.00000000	      0.00000000
     17.19950000	     -2.76022767	     -5.82307918	      5.16205496	      1.11254318	      0.93267528	      0.47638572	      3.79082731	      6.01886335	    -20.40720402	      9.09346627	      9.09346627	     10.01225078	      1.85488305	     -6.17580129	     37.03655967	    -12.26936391	     -1.20523298	     42.51166033	     42.51166033	      9.14846862	    -18.39257504	     15.47573422	    -10.83794686	      7.53201821	      5.06441835	     27.37808911	    -18.01205669	     -6.00268841	     48.54316739	     45.20559325	      0.00000000	      0.00000000	      1.41279197	     -5.65748397	      0.07898833	     33.03468082	     45.76462494	      0.00000000	      0.00000000
     17.21085714	     -3.03193477	     -6.20730560	      5.09504247	      1.11175731	      0.93135716	      0.47698618	      3.42836982	      6.53617394	    -20.34620715	      8.88372785	      8.88372785	     10.37528522	      2.03900551	     -6.33666050	     37.45327250	    -12.33977005	     -1.30767014	     38.88597775	     38.88597775	      9.19382252	    -17.52417984	     15.90048404	    -10.51965491	      7.88055299	      5.67117813	     29.43763284	    -18.64847743	     -6.19528756	     49.46742506	     45.19438350	      0.00000000	      0.00000000	     -0.06705275	     -5.53745980	      0.15346629	     32.25711637	     45.73074003	      0.00000000	      0.00000000
     17.22221429	     -2.98856114	     -6.13099376	      5.08947293	      1.11142469	      0.93089100	      0.47711680	      2.14607744	      6.67977068	    -20.82172993	      7.70524788	      7.70524788	     10.62586157	      3.68877930	     -6.39065142	     36.95238460	    -11.84072479	     -1.45235807	     34.60016445	     34.60016445	      8.10337579	    -16.98459669	     14.23461503	    -10.57752451	      7.78444803	      5.12585597	     31.85407519	    -18.22696731	     -5.52407105	     51.80010307	     45.12101332	      0.00000000	      0.00000000	     -0.75369522	     -5.45111786	      1.11757392	     28.03469726	     45.57817773	      0.00000000	      0.00000000
     17.23357143	     -3.14201159	     -6.28807094	      4.96446843	      1.11100271	      0.92971073	      0.47744724	      1.43775340	      6.99613511	    -20.69420128	      7.17562487	      7.17562487	     10.96883016	      4.13937598	     -6.45072627	     36.84941655	    -11.66915544	     -1.55527265	     30.83322790	     30.83322790	      7.99970285	    -15.47903015	     14.35698812	    -10.41435297	      7.89204303	      5.10318280	     34.05888432	    -18.10120343	     -5.56063061	     53.33105383	     45.08572506	      0.00000000	      0.00000000	     -2.33505165	     -5.48267886	      1.32975976	     26.92840743	     45.51789735	      0.00000000	      0.00000000
     17.24492857	     -3.33135126	     -6.45228108	      4.80056662	      1.11069819	      0.92837070	      0.47775015	      0.76347508	      7.30019308	    -20.63982929	      6.66470558	      6.66470558	     11.34035311	      4.74348736	     -6.53632053	     36.72775488	    -11.55787736	     -1.74862315	     27.25398755	     27.25398755	      7.88430193	    -13.50504667	     14.36441114	    -10.19481860	      7.99736398	      5.12977472	     36.18436487	    -17.96904479	     -5.51616689	     54.82240565	     45.04743341	      0.00000000	      0.00000000	     -3.82824797	     -5.46091898	      1.58319471	     25.84902804	     45.45173295	      0.00000000	      0.00000000
     17.25628571	     -3.46142219	     -6.68220747	      4.62669036	      1.11058761	      0.92693740	      0.47794488	      0.00743419	      7.65637635	    -20.69887687	      6.16041692	      6.16041692	     11.75077145	      5.60843251	     -6.56661113	     36.58146079	    -11.56825030	     -2.03657475	     24.07359982	     24.07359982	      7.71169337	    -11.17793210	     13.99901923	    -10.05335479	      8.23170507	      5.03159848	     38.30527850	    -17.71760160	     -5.30559601	     56.58621006	     44.99650535	      0.00000000	      0.00000000	     -5.33113744	     -5.41875582	      2.01596926	     24.70698319	     45.35249580	      0.00000000	      0.00000000
     17.26764286	     -3.62280027	     -6.88789310	      4.39631520	      1.11060816	      0.92540870	      0.47809998	     -0.65378139	      7.94545837	    -20.71381750	      5.81647063	      5.81647063	     12.24688977	      6.41801633	     -6.48325071	     36.44679664	    -11.59879483	     -2.48460254	     21.28750474	     21.28750474	      7.51337256	     -8.77090770	     13.50691875	     -9.84448539	      8.40348822	      5.07986094	     40.19327419	    -17.57046374	     -5.01722066	     58.34649990	     44.94621650	      0.00000000	      0.00000000	     -6.86520331	     -5.42207501	      2.58630181	     23.90023448	     45.22152920	      0.00000000	      0.00000000
